<?xml version="1.0" encoding="utf-8"?>
<!-- Generator: Adobe Illustrator 21.1.0, SVG Export Plug-In . SVG Version: 6.00 Build 0)  -->
<svg version="1.1" id="Layer_1" xmlns="http://www.w3.org/2000/svg" xmlns:xlink="http://www.w3.org/1999/xlink" x="0px" y="0px"
	 viewBox="0 0 32 32" style="enable-background:new 0 0 32 32;" xml:space="preserve">
<style type="text/css">
	.st0{fill:#004165;}
</style>
<g>
	<g>
		<path class="st0" d="M26.895,32H5.105C3.283,32,1.8,30.491,1.8,28.636v-8.655c0-1.854,1.483-3.363,3.306-3.363h21.789
			c1.823,0,3.306,1.509,3.306,3.363v8.655C30.2,30.491,28.717,32,26.895,32z M5.105,17.935c-1.097,0-1.989,0.918-1.989,2.046v8.655
			c0,1.128,0.892,2.047,1.989,2.047h21.789c1.097,0,1.988-0.918,1.988-2.047v-8.655c0-1.128-0.892-2.046-1.988-2.046H5.105z
			 M7.806,15.014c-0.036,0-0.072-0.003-0.109-0.009c-0.359-0.06-0.601-0.399-0.542-0.757c0.159-0.956,0.908-1.778,1.866-2.045
			l4.053-0.961v-1.197c-1.368-0.992-2.267-2.659-2.267-4.544c0-3.033,2.33-5.5,5.194-5.5c2.554,0,4.683,1.962,5.114,4.537
			c0.005,0.021,0.008,0.041,0.01,0.062c0.046,0.293,0.069,0.594,0.069,0.901c0,1.885-0.9,3.552-2.267,4.544v1.197l4.028,0.955
			c1.018,0.284,1.753,1.091,1.896,2.063c0.053,0.36-0.196,0.694-0.555,0.748c-0.361,0.051-0.694-0.196-0.748-0.555
			c-0.067-0.451-0.437-0.845-0.922-0.98l-4.51-1.069c-0.297-0.07-0.507-0.335-0.507-0.641v-1.029c-1.013,0.351-2.204,0.351-3.218,0
			v1.029c0,0.305-0.21,0.57-0.507,0.641L9.35,13.478c-0.441,0.124-0.82,0.532-0.895,0.985C8.401,14.785,8.122,15.014,7.806,15.014z
			 M12.124,5.505c0.002,2.306,1.741,4.181,3.877,4.181c2.075,0,3.774-1.769,3.872-3.983c-0.41,0.103-0.869,0.125-1.337,0.056
			c-0.75-0.111-1.408-0.443-1.89-0.939C15.263,5.798,13.475,5.954,12.124,5.505z M16.756,3.213c0.032,0,0.064,0.003,0.096,0.007
			c0.204,0.03,0.382,0.154,0.481,0.335c0.374,0.682,1.1,0.857,1.395,0.901c0.396,0.058,0.754,0.009,1.005-0.088
			c-0.459-1.758-1.958-3.051-3.732-3.051c-1.708,0-3.161,1.197-3.676,2.855c1.039,0.435,2.806,0.371,3.971-0.771
			C16.419,3.28,16.585,3.213,16.756,3.213z"/>
	</g>
</g>
</svg>
