<?xml version="1.0" encoding="UTF-8"?>
<svg width="48px" height="48px" viewBox="0 0 48 48" version="1.1" xmlns="http://www.w3.org/2000/svg" xmlns:xlink="http://www.w3.org/1999/xlink">
    <!-- Generator: Sketch 53.1 (72631) - https://sketchapp.com -->
    <title>5 Ways to Bank/144-wtb_movile_banker_lender_car/Line 32x32</title>
    <desc>Created with Sketch.</desc>
    <defs>
        <path d="M47.0115,47.0983593 L0.9885,47.0983593 C0.4425,47.0983593 0,46.6558593 0,46.1098593 L0,39.5833593 C0,31.6798593 7.464,30.6673593 14.682,29.6878593 C15.063,29.6368593 15.447,29.5843593 15.8325,29.5303593 C15.8595,29.5258593 15.8865,29.5213593 15.9135,29.5198593 C16.3455,29.4598593 16.779,29.3983593 17.2125,29.3338593 C16.083,28.3423593 15.0885,27.1873593 14.3385,25.8718593 C13.3635,27.3898593 11.6385,28.5643593 9.5475,28.9933593 C6.7845,29.5603593 2.9085,28.7038593 1.08,24.4273593 C0.9495,24.1213593 0.981,23.7718593 1.164,23.4943593 C1.347,23.2168593 1.656,23.0503593 1.9875,23.0503593 C4.5165,23.0503593 5.49,19.6228593 6.7935,13.9798593 C8.007,8.72535927 9.381,2.76885927 13.7295,0.722859271 C16.3995,-0.534140729 19.7625,-0.154640729 24,1.88385927 C28.236,-0.154640729 31.6005,-0.534140729 34.2705,0.722859271 C38.6175,2.76735927 39.993,8.72385927 41.2065,13.9798593 C42.51,19.6243593 43.4835,23.0503593 46.0125,23.0503593 C46.344,23.0503593 46.6545,23.2168593 46.8375,23.4943593 C47.0205,23.7718593 47.0505,24.1213593 46.9215,24.4273593 C45.096,28.6978593 41.3565,29.5843593 38.466,28.9933593 C36.3705,28.5643593 34.6425,27.3823593 33.6705,25.8583593 C32.919,27.1783593 31.923,28.3363593 30.792,29.3308593 C31.2285,29.3968593 31.665,29.4598593 32.1,29.5198593 C32.1285,29.5228593 32.1555,29.5258593 32.184,29.5318593 C32.622,29.5933593 33.0585,29.6518593 33.489,29.7103593 C40.95,30.7273593 48,31.6888593 48,39.5833593 L48,46.1098593 C48,46.6558593 47.5575,47.0983593 47.0115,47.0983593 Z M29.2755,45.1228593 L46.0245,45.1228593 L46.0245,39.5833593 C46.0245,33.7123593 41.1585,32.7508593 33.219,31.6678593 C33.0615,31.6468593 32.9025,31.6243593 32.742,31.6033593 L29.2755,45.1228593 Z M20.7645,45.1228593 L27.2355,45.1228593 L27.9045,42.5143593 L24,35.1778593 L20.097,42.5113593 L20.7645,45.1228593 Z M1.9755,45.1228593 L18.726,45.1228593 L15.27,31.6033593 C15.162,31.6183593 15.0555,31.6318593 14.949,31.6468593 C6.906,32.7373593 1.977,33.7048593 1.977,39.5833593 L1.977,45.1228593 L1.9755,45.1228593 Z M24.957,32.7688593 L28.632,39.6763593 L30.774,31.3258593 C30.1785,31.2373593 29.58,31.1443593 28.98,31.0423593 C28.863,31.0228593 28.755,30.9823593 28.6575,30.9268593 C27.456,31.6933593 26.1915,32.3083593 24.957,32.7688593 Z M17.238,31.3273593 L19.371,39.6703593 L23.0445,32.7688593 C21.8145,32.3098593 20.5545,31.6978593 19.359,30.9373593 C19.266,30.9883593 19.1625,31.0243593 19.0515,31.0438593 C18.45,31.1458593 17.844,31.2388593 17.238,31.3273593 Z M15.1725,22.7953593 C16.596,27.9568593 22.2105,30.3658593 24,31.0138593 C25.893,30.3298593 32.0655,27.6718593 33.0315,21.8728593 C33.111,21.3958593 33.5235,21.0478593 34.0065,21.0478593 C35.0055,21.0478593 35.2695,19.7263593 35.2695,19.0273593 C35.2695,18.3283593 35.0055,17.0068593 34.0065,17.0068593 C33.5535,17.0068593 33.1575,16.6978593 33.048,16.2583593 L32.232,12.9883593 C26.925,12.8548593 25.0785,11.3413593 24,9.76785927 C22.9215,11.3413593 21.0765,12.8548593 15.7695,12.9883593 L14.9535,16.2583593 C14.844,16.6978593 14.448,17.0068593 13.995,17.0068593 C12.996,17.0068593 12.7305,18.3283593 12.7305,19.0273593 C12.7305,19.7263593 12.9945,21.0478593 13.995,21.0478593 C14.478,21.0478593 14.8905,21.3973593 14.9685,21.8728593 C15.0195,22.1758593 15.084,22.4698593 15.1605,22.7563593 C15.1665,22.7683593 15.1695,22.7818593 15.1725,22.7953593 Z M3.4965,24.7813593 C5.3235,27.5728593 8.226,27.2473593 9.1515,27.0583593 C11.139,26.6503593 13.149,25.1848593 13.224,23.1538593 C13.203,23.0713593 13.182,22.9873593 13.1625,22.9048593 C11.7285,22.4863593 10.755,20.9833593 10.755,19.0258593 C10.755,17.0548593 11.7435,15.5428593 13.1955,15.1378593 L14.0355,11.7688593 C14.145,11.3293593 14.541,11.0203593 14.994,11.0203593 C20.9715,11.0203593 21.9795,9.33135927 22.647,8.21385927 C22.8435,7.88235927 23.031,7.57035927 23.301,7.30035927 C23.6715,6.92835927 24.3285,6.92835927 24.699,7.30035927 C24.969,7.57035927 25.155,7.88235927 25.3515,8.21385927 C26.019,9.33135927 27.0255,11.0203593 33.003,11.0203593 C33.456,11.0203593 33.852,11.3293593 33.9615,11.7688593 L34.8015,15.1378593 C36.2535,15.5428593 37.242,17.0548593 37.242,19.0258593 C37.242,20.9818593 36.2685,22.4863593 34.836,22.9048593 C34.821,22.9678593 34.806,23.0293593 34.7895,23.0923593 C34.8255,25.1563593 36.855,26.6473593 38.8575,27.0583593 C39.78,27.2473593 42.675,27.5713593 44.5005,24.7813593 C41.418,23.6953593 40.374,19.1758593 39.2775,14.4253593 C38.166,9.60885927 36.9045,4.14885927 33.426,2.51235927 C31.248,1.48935927 28.308,1.93185927 24.4395,3.86985927 C24.1605,4.00935927 23.8335,4.00935927 23.5545,3.86985927 C19.686,1.93185927 16.746,1.48785927 14.568,2.51235927 C11.0895,4.14885927 9.828,9.60885927 8.7165,14.4253593 C7.623,19.1743593 6.579,23.6953593 3.4965,24.7813593 Z M42.0975,42.4753593 L35.205,42.4753593 C34.659,42.4753593 34.2165,42.0328593 34.2165,41.4883593 L34.2165,37.5898593 C34.2165,37.0438593 34.659,36.6013593 35.205,36.6013593 L42.0975,36.6013593 C42.6435,36.6013593 43.0845,37.0438593 43.0845,37.5898593 L43.0845,41.4883593 C43.0845,42.0343593 42.642,42.4753593 42.0975,42.4753593 Z M36.192,40.4998593 L41.109,40.4998593 L41.109,38.5768593 L36.192,38.5768593 L36.192,40.4998593 Z" id="path-1"></path>
    </defs>
    <g id="Home-Centres-Landing-Page" stroke="none" stroke-width="1" fill="none" fill-rule="evenodd">
        <g id="Home-Centres---VIC---1164" transform="translate(-73.000000, -565.000000)">
            <g id="Group-Copy" transform="translate(73.000000, 565.000000)">
                <g id="3-Generic/107-specialist_business_details/Line-32x32">
                    <mask id="mask-2" fill="white">
                        <use xlink:href="#path-1"></use>
                    </mask>
                    <use id="Shape" fill="#004165" fill-rule="nonzero" xlink:href="#path-1"></use>
                    <g id="99⚙️Colours/Deep-Current-004165" mask="url(#mask-2)" fill="#004165" fill-rule="evenodd">
                        <rect id="Path" x="0" y="0" width="48" height="48"></rect>
                    </g>
                </g>
            </g>
        </g>
    </g>
</svg>