<?xml version="1.0" encoding="utf-8"?>
<!-- Generator: Adobe Illustrator 21.1.0, SVG Export Plug-In . SVG Version: 6.00 Build 0)  -->
<svg version="1.1" id="Layer_1" xmlns="http://www.w3.org/2000/svg" xmlns:xlink="http://www.w3.org/1999/xlink" x="0px" y="0px"
	 viewBox="0 0 32 32" style="enable-background:new 0 0 32 32;" xml:space="preserve">
<style type="text/css">
	.st0{fill:#004165;}
</style>
<g>
	<g>
		<path class="st0" d="M30.674,31.886H0.659C0.295,31.886,0,31.592,0,31.228V15.845c0-0.008,0-0.015,0-0.023V1.189
			C0,0.825,0.295,0.53,0.659,0.53s0.659,0.295,0.659,0.659v13.474l7.469-4.533C8.712,9.885,8.671,9.625,8.671,9.355
			c0-1.467,1.193-2.661,2.66-2.661c1.467,0,2.66,1.194,2.66,2.661c0,0.055-0.002,0.11-0.005,0.165l5.215,1.685
			c0.461-0.794,1.32-1.329,2.302-1.329c0.376,0,0.734,0.078,1.059,0.22l4.581-5.823c-0.291-0.427-0.462-0.943-0.462-1.498
			c0-1.467,1.193-2.661,2.66-2.661c1.466,0,2.66,1.194,2.66,2.661s-1.193,2.661-2.66,2.661c-0.435,0-0.846-0.105-1.208-0.291
			l-4.531,5.759c0.351,0.451,0.561,1.018,0.561,1.633c0,1.467-1.193,2.661-2.659,2.661s-2.659-1.194-2.659-2.661
			c0-0.021,0-0.042,0.001-0.063l-5.264-1.7c-0.471,0.746-1.304,1.243-2.25,1.243c-0.724,0-1.381-0.291-1.861-0.761l-8.153,4.949
			v10.69l6.428-4.233C7.67,22.414,7.63,22.153,7.63,21.883c0-1.467,1.193-2.661,2.659-2.661c1.24,0,2.283,0.853,2.577,2.003h4.725
			c0.294-1.15,1.338-2.003,2.577-2.003c0.744,0,1.418,0.307,1.901,0.802l4.713-2.75c-0.066-0.232-0.102-0.477-0.102-0.731
			c0-1.467,1.193-2.661,2.66-2.661c1.466,0,2.66,1.194,2.66,2.661c0,1.467-1.193,2.661-2.66,2.661c-0.74,0-1.41-0.304-1.893-0.794
			l-4.718,2.753c0.064,0.229,0.099,0.47,0.099,0.72c0,1.467-1.193,2.661-2.659,2.661c-1.24,0-2.284-0.853-2.577-2.002h-4.726
			c-0.294,1.15-1.338,2.002-2.577,2.002c-0.722,0-1.378-0.289-1.857-0.758l-7.115,4.685v2.099h29.357
			c0.364,0,0.659,0.295,0.659,0.659S31.038,31.886,30.674,31.886z M20.169,20.538c-0.74,0-1.343,0.603-1.343,1.344
			c0,0.741,0.602,1.344,1.343,1.344c0.74,0,1.342-0.603,1.342-1.344c0-0.232-0.059-0.451-0.163-0.642
			c-0.005-0.008-0.01-0.017-0.016-0.025c-0.006-0.01-0.012-0.021-0.017-0.031C21.08,20.797,20.654,20.538,20.169,20.538z
			 M9.155,22.601c0.238,0.375,0.658,0.625,1.134,0.625c0.74,0,1.343-0.603,1.343-1.344c0-0.741-0.602-1.344-1.343-1.344
			s-1.342,0.603-1.342,1.344c0,0.237,0.062,0.461,0.17,0.654c0.001,0.002,0.002,0.004,0.004,0.006
			C9.133,22.562,9.145,22.581,9.155,22.601z M29.34,15.198c-0.74,0-1.343,0.603-1.343,1.344c0,0.741,0.602,1.344,1.343,1.344
			c0.74,0,1.342-0.603,1.342-1.344C30.683,15.801,30.081,15.198,29.34,15.198z M21.503,11.193c-0.74,0-1.342,0.603-1.342,1.344
			c0,0.741,0.602,1.344,1.342,1.344c0.74,0,1.342-0.603,1.342-1.344c0-0.42-0.193-0.795-0.496-1.042
			c-0.011-0.008-0.021-0.015-0.032-0.024c-0.008-0.006-0.015-0.012-0.023-0.019C22.073,11.289,21.799,11.193,21.503,11.193z
			 M10.206,10.088c0.24,0.368,0.654,0.611,1.125,0.611c0.74,0,1.343-0.603,1.343-1.344c0-0.741-0.602-1.344-1.343-1.344
			S9.988,8.614,9.988,9.355c0,0.239,0.063,0.465,0.173,0.66c0.008,0.012,0.016,0.024,0.024,0.036
			C10.192,10.063,10.199,10.076,10.206,10.088z M28.47,3.798c0.234,0.2,0.538,0.321,0.87,0.321c0.74,0,1.342-0.603,1.342-1.344
			c0-0.741-0.602-1.344-1.342-1.344c-0.74,0-1.343,0.603-1.343,1.344c0,0.378,0.157,0.72,0.409,0.965
			C28.429,3.758,28.451,3.777,28.47,3.798z"/>
	</g>
</g>
</svg>
