<?xml version="1.0" encoding="utf-8"?>
<!-- Generator: Adobe Illustrator 22.1.0, SVG Export Plug-In . SVG Version: 6.00 Build 0)  -->
<svg version="1.1" id="Layer_1" xmlns="http://www.w3.org/2000/svg" xmlns:xlink="http://www.w3.org/1999/xlink" x="0px" y="0px"
	 viewBox="0 0 32 32" style="enable-background:new 0 0 32 32;" xml:space="preserve">
<style type="text/css">
	.st0{fill:none;stroke:#003171;stroke-width:1.5;stroke-linecap:round;stroke-linejoin:round;}
</style>
<title>EFTPOSMachines--247Support_32_Icon</title>
<g>
	<path class="st0" d="M21,14.3v1.3 M21,23.2v1.3 M19.1,21.2c0,1.1,0.8,1.9,1.9,1.9c1,0,1.9-0.9,1.9-1.9c0-1.1-0.8-1.9-1.9-1.9
		c-1,0-1.9-0.9-1.9-1.9c0-1.1,0.8-1.9,1.9-1.9c1,0,1.9,0.9,1.9,1.9 M24.5,8.2h3.1v3.1 M10.7,17.7L21,7.3l10.3,10.5 M13.4,18.4v8.7
		h15.2v-8.7 M15.1,9.2l-4.5-4.6L0.5,15 M3.2,15.8v8.7h7.4"/>
</g>
</svg>
