<?xml version="1.0" encoding="utf-8"?>
<!-- Generator: Adobe Illustrator 21.1.0, SVG Export Plug-In . SVG Version: 6.00 Build 0)  -->
<svg version="1.1" id="Layer_1" xmlns="http://www.w3.org/2000/svg" xmlns:xlink="http://www.w3.org/1999/xlink" x="0px" y="0px"
	 viewBox="0 0 32 32" style="enable-background:new 0 0 32 32;" xml:space="preserve">
<style type="text/css">
	.st0{fill:#004165;}
</style>
<path class="st0" d="M13.5,18.786c0.075,0.088,0.231,0.207,0.431,0.164c0.253-0.055,0.539-0.361,0.651-0.581
	c0.082-0.161,0.137-0.289,0.19-0.522c0.184-0.819-0.009-1.604-0.377-2.125c-0.35-0.494-0.857-0.871-1.267-1.037
	c-0.313-0.128-0.834-0.268-1.415-0.178c-0.418,0.065-0.624,0.21-0.74,0.308c-0.189,0.162-0.323,0.445-0.117,0.739
	C11.065,15.852,12.991,18.184,13.5,18.786z M17.605,15.721c-0.368,0.521-0.561,1.306-0.377,2.125
	c0.052,0.233,0.108,0.361,0.19,0.522c0.112,0.22,0.398,0.526,0.651,0.581c0.201,0.044,0.357-0.075,0.432-0.164
	c0.509-0.602,2.435-2.933,2.643-3.232c0.206-0.294,0.072-0.577-0.117-0.739c-0.116-0.098-0.322-0.243-0.74-0.308
	c-0.581-0.09-1.101,0.05-1.415,0.178C18.462,14.85,17.955,15.227,17.605,15.721z M15.162,14.517
	c0.392-0.007,0.322-0.333,0.291-0.469c-0.028-0.119-0.1-0.284-0.195-0.43c-0.146-0.223-0.245-0.469-0.245-0.787
	c0-0.567,0.524-0.977,0.988-0.977c0.465,0,0.988,0.41,0.989,0.977c0,0.318-0.1,0.564-0.245,0.787
	c-0.095,0.146-0.167,0.311-0.195,0.43c-0.031,0.136-0.101,0.462,0.29,0.469c0.253,0.005,0.879-0.22,1.384-0.844
	c0.389-0.501,0.62-1.135,0.62-1.826c0-1.618-1.272-2.929-2.843-2.929c-1.57,0-2.843,1.311-2.843,2.929
	c0,0.691,0.232,1.326,0.621,1.826C14.283,14.297,14.908,14.522,15.162,14.517z M27.998,20.811V7.066
	c0-0.364-0.295-0.659-0.659-0.659H4.661c-0.364,0-0.659,0.295-0.659,0.659v13.746c0,0.364,0.295,0.659,0.659,0.659H27.34
	C27.703,21.47,27.998,21.175,27.998,20.811z M26.681,20.153H5.319V7.724h21.362V20.153z M31.341,22.902h-0.675V6.378
	c0-1.5-1.193-2.72-2.66-2.72H3.994c-1.467,0-2.66,1.22-2.66,2.72v16.523H0.659C0.295,22.902,0,23.196,0,23.56v2.749
	c0,1.121,0.894,2.033,1.993,2.033h28.015c1.099,0,1.992-0.912,1.992-2.033V23.56C32,23.196,31.705,22.902,31.341,22.902z
	 M2.651,6.378c0-0.774,0.602-1.403,1.343-1.403h24.013c0.74,0,1.342,0.629,1.342,1.403v16.523H19.335
	c-0.364,0-0.658,0.295-0.658,0.659v0.716h-5.353V23.56c0-0.364-0.295-0.659-0.659-0.659H2.651V6.378z M30.683,26.309
	c0,0.395-0.303,0.715-0.675,0.715H1.993c-0.373,0-0.676-0.321-0.676-0.715v-2.091h10.689v0.716c0,0.364,0.295,0.658,0.658,0.658
	h6.67c0.364,0,0.659-0.295,0.659-0.658v-0.716h10.689V26.309z"/>
</svg>
