<?xml version="1.0" encoding="utf-8"?>
<!-- Generator: Adobe Illustrator 21.1.0, SVG Export Plug-In . SVG Version: 6.00 Build 0)  -->
<svg version="1.1" id="Layer_1" xmlns="http://www.w3.org/2000/svg" xmlns:xlink="http://www.w3.org/1999/xlink" x="0px" y="0px"
	 viewBox="0 0 32 32" style="enable-background:new 0 0 32 32;" xml:space="preserve">
<style type="text/css">
	.st0{fill:#004165;}
</style>
<path class="st0" d="M17.848,14.311c0.43-0.565,0.687-1.283,0.687-2.063c0-1.828-1.409-3.309-3.147-3.309
	c-1.738,0-3.147,1.482-3.147,3.309c0,0.781,0.257,1.498,0.687,2.063c0.559,0.705,1.252,0.959,1.532,0.954
	c0.434-0.008,0.357-0.376,0.322-0.53c-0.031-0.134-0.111-0.321-0.216-0.486c-0.161-0.251-0.272-0.529-0.272-0.888
	c0.001-0.64,0.58-1.104,1.094-1.104c0.514,0,1.094,0.463,1.095,1.104c0,0.359-0.11,0.637-0.272,0.888
	c-0.105,0.165-0.185,0.352-0.216,0.486c-0.035,0.154-0.112,0.522,0.322,0.53C16.596,15.27,17.288,15.016,17.848,14.311z
	 M20.952,15.6c-0.128-0.111-0.356-0.274-0.819-0.348c-0.643-0.102-1.219,0.057-1.566,0.201c-0.454,0.188-1.016,0.613-1.403,1.172
	c-0.408,0.588-0.621,1.476-0.417,2.401c0.058,0.262,0.12,0.407,0.21,0.59c0.124,0.249,0.441,0.594,0.721,0.656
	c0.222,0.049,0.395-0.085,0.478-0.185c0.563-0.681,2.695-3.314,2.926-3.652C21.309,16.103,21.16,15.783,20.952,15.6z M12.208,15.453
	c-0.347-0.144-0.923-0.303-1.566-0.201c-0.463,0.074-0.691,0.237-0.819,0.348c-0.209,0.183-0.358,0.503-0.13,0.835
	c0.231,0.338,2.363,2.971,2.926,3.652c0.083,0.1,0.256,0.234,0.477,0.185c0.28-0.062,0.597-0.408,0.721-0.656
	c0.09-0.182,0.152-0.327,0.21-0.59c0.204-0.925-0.01-1.813-0.417-2.401C13.224,16.066,12.662,15.641,12.208,15.453z M31.972,20.002
	c0-0.001,0-0.001,0-0.002c-0.007-0.033-0.016-0.086-0.028-0.154c-0.128-0.741-0.518-2.996-1.626-4.408
	c-0.647-0.825-1.851-2.36-4.563-3.271c-0.733-0.246-1.532-1.024-2.458-1.924c-1.827-1.778-4.33-4.213-8.379-4.213
	c-6.01,0-13.492,7.748-13.808,8.078c-0.076,0.08-0.131,0.177-0.16,0.284l-0.928,3.44C0,17.917-0.006,18.006,0.006,18.093
	l0.304,2.225c0.025,0.184,0.127,0.349,0.28,0.454l2.111,1.449C2.7,22.246,2.7,22.272,2.7,22.298c0,2.025,1.581,3.672,3.524,3.672
	c1.727,0,3.168-1.302,3.467-3.013h12.359c0.299,1.711,1.74,3.013,3.467,3.013c1.728,0,3.169-1.302,3.468-3.013h0.421
	c0.248,0,2.425-0.035,2.425-1.229c0-0.097,0.036-0.316,0.067-0.51C31.969,20.788,32.041,20.345,31.972,20.002z M6.224,24.653
	c-1.217,0-2.207-1.056-2.207-2.355c0-1.298,0.99-2.354,2.207-2.354c1.217,0,2.207,1.056,2.207,2.354
	C8.431,23.596,7.441,24.653,6.224,24.653z M25.518,24.653c-1.217,0-2.207-1.056-2.207-2.355c0-1.298,0.99-2.354,2.207-2.354
	c1.217,0,2.207,1.056,2.207,2.354C27.725,23.596,26.735,24.653,25.518,24.653z M30.599,21.006c-0.026,0.159-0.051,0.313-0.067,0.455
	c-0.234,0.084-0.715,0.178-1.126,0.178h-0.422c-0.298-1.711-1.74-3.013-3.467-3.013c-1.727,0-3.168,1.302-3.467,3.013H9.691
	c-0.299-1.711-1.74-3.013-3.467-3.013c-1.441,0-2.683,0.906-3.228,2.2l-1.421-0.975l-0.246-1.804l0.848-3.146
	c0.958-0.968,7.668-7.554,12.741-7.554c3.514,0,5.611,2.04,7.46,3.84c1.041,1.013,1.939,1.887,2.958,2.229
	c2.337,0.785,3.344,2.068,3.946,2.835c0.599,0.763,1.058,2.048,1.365,3.82c0.014,0.083,0.025,0.147,0.034,0.188
	C30.7,20.383,30.635,20.788,30.599,21.006z"/>
</svg>
